<svg xmlns="http://www.w3.org/2000/svg" viewBox="0 0 24 24">
  <rect width="24" height="24" rx="5" fill="#cafe8e"/>
  <path d="M4 5.5A2.5 2.5 0 0 1 6.5 3h7A2.5 2.5 0 0 1 16 5.5V11a2.5 2.5 0 0 1-2.5 2.5H10l-3 3v-3h-.5A2.5 2.5 0 0 1 4 11V5.5Z" fill="none" stroke="#080808" stroke-width="1.6" stroke-linejoin="round"/>
  <path d="M8 10.5A2.5 2.5 0 0 1 10.5 8h7A2.5 2.5 0 0 1 20 10.5V16a2.5 2.5 0 0 1-2.5 2.5H14l-3 3v-3h-.5A2.5 2.5 0 0 1 8 16v-5.5Z" fill="#080808" stroke="#080808" stroke-width="1.6" stroke-linejoin="round"/>
</svg>
